<svg width="108" height="150" viewBox="0 0 108 150" fill="none" xmlns="http://www.w3.org/2000/svg">
<g clip-path="url(#clip0_609_21113)">
<path d="M65.389 19.4056L41.3594 43.4566L45.3643 47.4276L51.1073 41.6584H60.9307L65.389 48.5515L69.9229 41.6584H80.0486L100.678 61.8882C101.131 59.5655 101.434 57.1679 101.509 54.7703L65.389 19.4056ZM67.8827 37.9871L65.389 41.7333L62.971 37.9871H54.8099L65.389 27.3477L76.2704 37.9121L67.8827 37.9871Z" fill="white"/>
<path d="M58.2865 60.2398L54.3571 64.2857L42.9468 76.049L30.3274 63.3117L13.7031 79.1209C14.761 80.6943 15.8945 82.1928 17.1035 83.6164L30.2519 71.1788L43.0223 84.066L65.5407 60.9141L89.4192 84.5904C90.7038 83.1669 91.8373 81.6684 92.9708 80.1699L65.3896 52.972L58.2865 60.2398Z" fill="white"/>
<path d="M53.6768 0C24.1309 0 0.176758 23.7513 0.176758 53.047C0.176758 82.3427 24.1309 106.094 53.6768 106.094C83.2227 106.094 107.177 82.3427 107.177 53.047C107.101 23.7513 83.2227 0 53.6768 0ZM92.895 80.1698C91.8371 81.7433 90.628 83.1668 89.3434 84.5904C71.7368 104.146 41.5108 105.794 21.7883 88.3367C14.0051 81.4436 8.7156 72.2278 6.67535 62.1129L30.4027 40.5345L54.3568 64.2857L58.2862 60.2398L45.3646 47.4276L41.3597 43.4565L30.5539 32.7423L5.84413 55.2198C5.84413 54.4705 5.76857 53.7213 5.76857 53.047C5.76857 26.8232 27.1535 5.61938 53.6012 5.61938C80.0489 5.61938 101.434 26.8232 101.434 53.047C101.434 53.6464 101.434 54.2458 101.434 54.8452C101.132 63.9111 98.1845 72.6773 92.895 80.1698Z" fill="#D0D1D3"/>
<path d="M22.6949 117.333H27.9089V115.684H20.5791V126.773H22.6949V117.333Z" fill="white"/>
<path d="M35.1638 126.998C39.0176 126.998 41.1335 124.825 41.1335 121.229C41.1335 117.857 39.3199 115.46 35.4661 115.46C31.7634 115.46 29.4209 117.483 29.4209 121.154C29.4965 124.675 31.4612 126.998 35.1638 126.998ZM35.315 117.183C37.8086 117.183 38.9421 118.906 38.9421 121.154C38.9421 123.402 37.8842 125.2 35.1638 125.2C32.6702 125.2 31.6123 123.327 31.6123 121.154C31.6878 118.906 32.7458 117.183 35.315 117.183Z" fill="white"/>
<path d="M46.7246 123.327H47.7825C51.0318 123.327 52.6942 121.603 52.6942 119.431C52.6942 117.033 51.0318 115.684 48.6137 115.684H44.5332V126.773H46.7246V123.327ZM48.3115 117.333C49.8983 117.333 50.5028 118.157 50.5028 119.506C50.5028 120.779 49.6716 121.603 47.9336 121.603H46.7246V117.333H48.3115Z" fill="white"/>
<path d="M55.6416 115.684V126.773H57.7574V122.053H63.047V126.773H65.2383V115.684H63.047V120.405H57.7574V115.684H55.6416Z" fill="white"/>
<path d="M76.1952 126.773H78.4622L74.6084 115.684H71.8125L67.4297 126.773H69.6211L70.9812 123.177H74.9862L76.1952 126.773ZM71.5858 121.603L73.0971 117.033L74.4572 121.603H71.5858Z" fill="white"/>
<path d="M79.8984 125.275L80.2763 126.923C82.1654 126.773 83.1477 126.024 84.0545 124.451L85.0369 122.652C85.2636 122.652 85.4902 122.652 85.7925 122.652H86.8504V126.698H89.0418V115.609H84.9613C82.6188 115.609 80.8808 116.883 80.8808 119.281C80.8808 120.629 81.5609 121.678 82.8455 122.128L82.1654 123.327C81.4853 124.675 80.8808 125.05 79.8984 125.275ZM85.4147 117.333H86.8504V121.154H85.6414C83.9789 121.154 83.0722 120.555 83.0722 119.281C83.1477 118.007 83.9034 117.333 85.4147 117.333Z" fill="white"/>
<path d="M22.1663 134.041L18.3125 144.006H20.7306L21.8641 141.084H25.2645L26.2468 144.006H28.7405L25.34 134.041H22.1663ZM22.4686 139.361L23.6776 135.54L24.66 139.361H22.4686Z" fill="#D0D1D3"/>
<path d="M33.3495 137.563H32.5183V135.914H37.2033V134.041H30.1758V144.006H33.4251C36.4477 144.006 38.1101 142.882 38.1101 140.784C38.1101 138.611 36.4477 137.563 33.3495 137.563ZM33.4251 142.133H32.5939V139.436H33.4251C35.0119 139.436 35.5409 140.035 35.5409 140.784C35.6165 141.534 35.0119 142.133 33.4251 142.133Z" fill="#D0D1D3"/>
<path d="M45.8934 134.041L43.9287 137.113L42.1151 134.041H39.3192L42.5685 138.911L38.9414 144.006H41.6617L43.7776 140.634L45.8178 144.006H48.6137L45.2133 138.836L48.6137 134.041H45.8934Z" fill="#D0D1D3"/>
<path d="M52.9212 134.041L49.0674 144.006H51.4855L52.6189 141.084H56.0194L57.0017 144.006H59.4954L56.0949 134.041H52.9212ZM53.2235 139.361L54.4325 135.54L55.4148 139.361H53.2235Z" fill="#D0D1D3"/>
<path d="M65.9185 138.836C66.5986 138.462 67.2787 137.712 67.2787 136.514C67.2787 135.165 66.0696 133.966 63.6515 133.966C62.2914 133.966 61.1579 134.416 60.4778 134.79L61.2335 136.439C61.9135 136.214 62.5936 135.914 63.3493 135.914C64.3316 135.914 64.785 136.289 64.785 136.963C64.785 137.637 64.2561 138.087 63.3493 138.087H61.9891V139.81H63.3493C64.4072 139.81 65.1628 140.11 65.1628 141.009C65.1628 141.833 64.4072 142.208 63.4248 142.208C62.3669 142.208 61.309 141.758 60.7801 141.459L60.0244 143.257C60.9312 143.781 62.1402 144.156 63.6515 144.156C66.7497 144.156 67.6565 142.582 67.6565 141.234C67.732 139.735 66.6741 139.061 65.9185 138.836Z" fill="#D0D1D3"/>
<path d="M72.7952 139.211L71.8884 140.634L71.964 139.286V134.041H69.5459V144.006H71.964L75.3644 138.836L76.2712 137.413L76.1956 138.761V144.006H78.6137V134.041H76.1956L72.7952 139.211Z" fill="#D0D1D3"/>
<path d="M81.0314 137.413C81.0314 138.536 81.5604 139.51 82.6183 139.96L82.2404 140.709C81.7115 141.758 81.0314 142.058 80.2002 142.283L80.578 144.081C82.5427 144.006 83.6006 143.257 84.3563 141.758L85.0364 140.41C85.1875 140.41 85.4142 140.41 85.5653 140.41H86.321V143.856H88.739V133.891H84.8097C82.6938 134.041 81.0314 135.165 81.0314 137.413ZM86.3965 135.914V138.911H85.5653C84.1296 138.911 83.5251 138.312 83.5251 137.413C83.5251 136.513 84.054 135.989 85.3386 135.989H86.3965V135.914Z" fill="#D0D1D3"/>
</g>
<defs>
<clipPath id="clip0_609_21113">
<rect width="107" height="150" fill="white" transform="translate(0.176758)"/>
</clipPath>
</defs>
</svg>
